<svg width="86" height="84" viewBox="0 0 86 84" fill="none" xmlns="http://www.w3.org/2000/svg">
<g clip-path="url(#clip0_11_84)">
<path d="M24.5234 0.0984917C22.0039 0.475836 20.3914 0.984428 18.4934 1.98521C15.6883 3.49459 13.3871 5.69302 11.8586 8.40005L11.2371 9.48287L9.94375 9.76177C3.89688 11.0743 0 13.6008 0 16.2422C0 17.9157 1.47813 19.5235 4.19922 20.8032C5.77813 21.5579 8.93594 22.5751 10.6324 22.8868C11.1867 22.9852 11.3211 23.1165 11.7074 23.8547C12.5977 25.5774 14.7813 28.0547 16.6289 29.4001C18.5773 30.8274 21.4832 31.9758 24.0027 32.3368C25.8336 32.5829 28.7395 32.4352 30.4863 31.9922C32.1828 31.5657 34.8535 30.3024 36.2812 29.236C37.8938 28.0547 39.607 26.1844 40.6148 24.4946L41.5051 23.018L42.7984 22.7391C47.6023 21.6399 51.2473 19.7532 52.2719 17.8172C52.759 16.9149 52.759 15.5696 52.2719 14.6672C51.2641 12.7477 48.0727 11.0579 43.3695 9.92583L41.4883 9.46646L40.9508 8.54771C37.877 3.19927 32.166 -0.0819778 26.1527 0.0164604C25.4809 0.0328674 24.7586 0.0656776 24.5234 0.0984917ZM30.3184 3.2813C34.8367 4.67583 38.2465 8.03912 39.6742 12.4688C40.0102 13.5352 40.0605 14.0274 40.0605 16.2422C40.0605 18.211 39.9934 18.9985 39.7582 19.7204C39.5902 20.2454 39.4223 20.6719 39.3887 20.6719C39.3551 20.6719 38.4984 20.7868 37.5074 20.918C36.5164 21.0493 35.4582 21.1969 35.1559 21.2297C34.6688 21.2954 34.6184 21.2626 34.5176 20.7047C33.8625 17.243 30.0328 15.3071 26.7742 16.8001C25.2289 17.5055 23.902 19.2446 23.7172 20.7868C23.6836 21.1805 23.5828 21.5415 23.5156 21.5743C23.1965 21.7711 14.9492 21.0329 13.6559 20.6883C13.2527 20.5899 13.1688 20.4258 12.9 19.4251C12.4633 17.8829 12.4465 14.9461 12.8496 13.3055C13.8238 9.26958 16.4945 5.95552 20.2402 4.15084C22.491 3.05162 23.818 2.78912 26.791 2.85474C28.6387 2.90396 29.3945 2.98599 30.3184 3.2813ZM9.91016 14.011C9.70859 15.3071 9.75898 17.768 10.0109 19.3922L10.1117 19.9993L8.93594 19.6876C5.32461 18.7032 2.85547 17.3086 2.85547 16.2258C2.85547 15.3071 4.80391 14.1422 8.0625 13.1086C9.1207 12.7805 10.0277 12.5344 10.0613 12.5672C10.0949 12.5836 10.0277 13.2399 9.91016 14.011ZM46.1914 13.6336C46.9137 13.8961 47.9551 14.4047 48.5094 14.7657C50.0715 15.7336 50.273 16.3735 49.2988 17.2102C48.2574 18.0961 45.1332 19.4415 43 19.9172L42.5633 19.9993L42.7816 18.654C43.084 16.6524 43 14.093 42.5633 12.7641C42.4793 12.5016 42.5801 12.518 43.6887 12.8133C44.3605 12.9938 45.4859 13.3547 46.1914 13.6336ZM30.5367 19.3594C32.0988 20.2946 32.334 22.4602 30.9902 23.6086C29.5289 24.8555 27.5301 24.511 26.6902 22.8376C25.7832 21.0493 27.0766 19.0313 29.1258 19.0313C29.6801 19.0313 30.1672 19.1461 30.5367 19.3594ZM17.1328 23.8711C18.2918 24.0024 20.3746 24.1665 21.7855 24.2157L24.3387 24.3305L24.7754 24.9376C25.2457 25.6102 25.7832 26.0204 26.875 26.5946C27.5133 26.9227 27.866 26.9883 29.1426 26.9883C30.4527 26.9883 30.7719 26.9227 31.4941 26.5454C32.4012 26.086 33.6945 24.9211 33.8457 24.429C33.9129 24.2485 34.1145 24.0844 34.316 24.0516C35.0215 23.904 37.8434 23.6086 37.8938 23.6743C38.0449 23.8055 36.2645 25.7415 35.1895 26.6274C32.7707 28.6126 29.6465 29.7118 26.4551 29.7282C22.659 29.7282 19.6355 28.5797 16.9313 26.1024C15.8898 25.1508 14.6301 23.6251 14.8988 23.6251C14.966 23.6251 15.9738 23.7399 17.1328 23.8711Z" fill="#88B0FF"/>
<path d="M21.2816 6.90702C18.1742 7.6289 17.0152 11.3531 19.1988 13.5844C20.2234 14.6344 21.8191 15.1266 23.1125 14.782C26.2871 13.9453 27.3621 10.2211 25.0945 7.97343C24.1875 7.07109 22.5246 6.61171 21.2816 6.90702ZM23.0789 9.86015C23.398 10.1062 23.5156 10.3359 23.5156 10.7953C23.5156 12.0258 22.1214 12.6 21.248 11.7305C20.0218 10.5492 21.7183 8.81015 23.0789 9.86015Z" fill="#88B0FF"/>
<path d="M64.2649 4.47891C64.0129 4.725 63.8449 5.13516 63.7778 5.69297C63.5258 7.74375 62.0645 9.17109 59.9481 9.45C57.7309 9.74531 57.6805 11.8945 59.8977 12.2227C62.1149 12.5344 63.5258 13.9125 63.7778 15.9633C63.9121 17.0133 64.3992 17.5547 65.2223 17.5547C65.9949 17.5547 66.4653 17.0297 66.5996 15.9961C66.9188 13.7977 68.2121 12.5344 70.4629 12.2227C71.5547 12.0586 72.0586 11.6156 72.0586 10.8117C72.0586 10.1227 71.4707 9.51562 70.7988 9.51562C69.9926 9.51562 68.6488 8.97422 67.9938 8.4C67.1875 7.69453 66.7676 6.84141 66.5996 5.61094C66.5156 4.97109 66.3813 4.67578 66.0621 4.42969C65.491 3.98672 64.752 4.00312 64.2649 4.47891ZM65.8774 11.5008L65.2055 12.1406L64.5336 11.4844L63.8617 10.8117L64.5336 10.1883L65.2223 9.56484L65.8774 10.2047L66.5324 10.8445L65.8774 11.5008Z" fill="#88B0FF"/>
<path d="M48.3414 28.1695C40.7492 35.5687 40.3125 36.0445 40.3125 36.5859C40.3125 37.1273 40.5309 37.3734 42.7984 39.5883C44.8141 41.5242 45.3852 42 45.7547 42C46.1074 42 46.5273 41.7211 47.384 40.9008L48.5598 39.8016L51.9863 43.1484L55.4297 46.5117V52.418V58.3406L54.741 58.9805C52.1711 61.4414 52.0871 65.8219 54.5898 68.168C54.8586 68.4305 55.0937 68.7258 55.0937 68.8078C55.0937 68.9062 52.0703 71.9414 48.375 75.5508C42.2441 81.5391 41.6562 82.1625 41.6562 82.6547C41.6562 83.0156 41.7906 83.3273 42.0762 83.5898L42.4793 84H47.132H51.7848L53.582 82.2609L55.3961 80.5219L55.4633 81.8672C55.5137 83.0977 55.5641 83.2453 55.984 83.6062C56.4543 84 56.5215 84 59.6457 84H62.8539L63.341 83.5242C63.7945 83.0648 63.8281 82.95 63.8281 81.7687V80.4891L65.659 82.2445L67.473 84H72.1258H76.7785L77.1816 83.5898C77.484 83.3109 77.6016 83.0156 77.6016 82.5727C77.6016 81.9984 77.3328 81.7031 70.8996 75.4031L64.1809 68.8242L64.8695 68.0039C65.2559 67.5445 65.7598 66.7734 65.9949 66.2812C66.3812 65.4937 66.4316 65.1656 66.4316 63.6562C66.4316 62.0484 66.398 61.8516 65.8941 60.8508C65.5918 60.2602 65.0039 59.4398 64.584 59.0297L63.8281 58.275V56.5031V54.7312L64.9199 55.7812C65.8437 56.6672 66.0957 56.8312 66.5996 56.8312C67.0699 56.8312 67.3387 56.6836 67.9098 56.1422L68.632 55.4531L69.6902 56.5031L70.7652 57.5695L70.0598 58.3406C68.9176 59.6039 68.968 59.7023 71.8402 62.5406C74.091 64.7555 74.3598 64.9687 74.8973 64.9687C75.4516 64.9687 75.8547 64.6242 80.6586 59.9156C83.5141 57.143 85.8824 54.7148 85.9328 54.5016C86 54.3047 85.9496 53.9273 85.832 53.6648C85.5801 53.0578 81.5152 49.1203 80.9105 48.907C80.3227 48.6773 79.718 48.907 78.9453 49.6453L78.3406 50.2031L77.2656 49.1367L76.2074 48.0867L76.8961 47.3484C77.4672 46.7414 77.6016 46.4789 77.6016 45.9867C77.6016 45.3961 77.2824 45.068 68.9176 36.8812L60.2336 28.3828L61.2414 27.3656C61.8125 26.7914 62.3164 26.2008 62.3836 26.0367C62.5852 25.4625 61.9637 24.6586 59.7129 22.493C57.7477 20.6062 57.4117 20.3437 56.9246 20.3437C56.4039 20.3437 55.7152 20.9836 48.3414 28.1695ZM52.4062 32.2383L45.7715 38.7187L44.6797 37.6523L43.5879 36.5859L50.2227 30.1055L56.8574 23.625L57.9492 24.6914L59.041 25.7578L52.4062 32.2383ZM70.4629 49.875L66.5996 53.6484L65.5078 52.582L64.416 51.5156L66.0117 49.957L67.5906 48.3984L66.5996 47.4141L65.5918 46.4297L63.9961 47.9883L62.4004 49.5469L58.5371 45.7734L54.6738 42L56.2695 40.4414L57.8652 38.8828L56.891 37.9477L55.9336 36.9961L54.3379 38.5547L52.7422 40.1133L51.6168 38.9977L50.4746 37.8984L54.3379 34.125L58.2012 30.3516L66.2637 38.2266L74.3262 46.1016L70.4629 49.875ZM60.9727 54.4687V57.0117H59.6289H58.2852V53.1562V49.3008L59.6289 50.6133L60.9727 51.9258V54.4687ZM74.5781 53.8945L72.8144 55.6172L71.7227 54.5508L70.6309 53.4844L72.3945 51.7617L74.1582 50.0391L75.25 51.1055L76.3418 52.1719L74.5781 53.8945ZM81.5992 53.2055L82.6406 54.2227L78.7773 57.9961L74.9141 61.7695L73.8223 60.7031L72.7305 59.6367L76.5434 55.9125C78.643 53.8453 80.4066 52.1719 80.457 52.1719C80.5074 52.1719 81.0281 52.6312 81.5992 53.2055ZM61.3086 59.9977C62.7531 60.5719 63.7273 62.032 63.7273 63.6562C63.7273 66.0023 62.0309 67.6594 59.6289 67.6594C56.0848 67.6594 54.2035 63.5578 56.5719 60.9984C57.8148 59.6531 59.5449 59.2922 61.3086 59.9977ZM60.9727 75.7969V81.2109H59.6289H58.2852V75.7969V70.3828H59.6289H60.9727V75.7969ZM53.1285 78.9469L50.8105 81.2109H48.627H46.4434L50.8945 76.8633L55.3457 72.5156L55.3961 74.5992L55.4465 76.6828L53.1285 78.9469ZM70.5973 81.1781L68.4641 81.2273L66.1461 78.9633L63.8281 76.6992V74.5664V72.4336L68.2793 76.7812L72.7305 81.1289L70.5973 81.1781Z" fill="#88B0FF"/>
<path d="M78.2231 20.6719C77.9039 20.918 77.7528 21.2297 77.6856 21.7875C77.5176 23.018 77.2993 23.5266 76.661 24.2648C75.9219 25.1016 74.9981 25.5773 73.8727 25.7086C72.7977 25.8398 72.2098 26.2992 72.193 27.0375C72.1594 27.8578 72.6969 28.2844 74.0071 28.5305C75.7036 28.8258 76.8121 29.6461 77.2993 30.9422L77.5008 31.5H79.0293H80.5578L80.8434 30.8766C81.4313 29.5641 82.7078 28.6945 84.3875 28.4648C85.7145 28.2844 86.2688 27.5133 85.8153 26.5289C85.5801 26.0367 85.2106 25.8562 83.9172 25.6102C81.8008 25.2328 80.9106 24.1992 80.3731 21.4594C80.1715 20.4422 79.0461 20.032 78.2231 20.6719ZM79.7348 27.743L79.0461 28.3992L78.3911 27.743L77.7192 27.0867L78.3743 26.4305L79.0293 25.7742L79.718 26.4305L80.4067 27.0867L79.7348 27.743Z" fill="#88B0FF"/>
<path d="M9.37264 32.6484C3.71209 33.6492 -0.268769 38.4398 0.0503716 43.8867C0.520684 51.8437 9.08709 56.5687 16.3433 52.8773C18.1406 51.9586 20.0387 50.039 20.9625 48.2179C22.5582 45.0679 22.5582 41.6226 20.9793 38.489C19.6355 35.8476 16.8808 33.6656 13.9414 32.8945C12.7824 32.5828 10.414 32.4515 9.37264 32.6484ZM11.0859 37.4883V39.6867L13.3199 42.607C14.5629 44.2148 15.7051 45.6422 15.873 45.7734C16.0746 45.9375 16.6457 46.0359 17.5023 46.0851C18.3422 46.1179 18.8125 46.2 18.8125 46.3312C18.8125 46.7578 17.7375 48.3 16.8472 49.1367C14.4285 51.4664 10.6324 52.1062 7.60897 50.7117C6.46678 50.1703 4.93826 49.0054 4.78709 48.5789C4.7199 48.3656 5.2742 47.3156 6.50037 45.3469L8.31444 42.4101L8.36483 39.0304L8.41522 35.6508L9.12068 35.4703C9.50701 35.3883 10.1117 35.3062 10.4644 35.2898L11.0859 35.2734V37.4883ZM15.218 36.3562C17.4351 37.6523 19.014 39.9164 19.2828 42.1969L19.4172 43.3125H18.359H17.3008L15.6211 41.1304L13.9414 38.932V37.357C13.9414 36.4711 14.0086 35.7656 14.0758 35.7656C14.1597 35.7656 14.6637 36.0281 15.218 36.3562ZM4.60232 43.1812C4.08162 44.0179 3.54412 44.8875 3.39295 45.1172L3.1242 45.5273L3.00662 45.1172C2.80506 44.4117 2.85545 42.1148 3.09061 41.2453C3.37615 40.1789 4.06483 38.932 4.85428 38.0297L5.45897 37.3406L5.50936 39.4898L5.55975 41.639L4.60232 43.1812Z" fill="#88B0FF"/>
<path d="M9.74219 47.4141V48.7266H11.0859H12.4297V47.4141V46.1016H11.0859H9.74219V47.4141Z" fill="#88B0FF"/>
<path d="M35.6933 46.2164C33.8289 46.6265 31.8973 47.6109 30.7383 48.7593C30.2344 49.2679 29.9152 49.3992 28.3027 49.7929C27.2949 50.039 25.9008 50.482 25.2289 50.7937C20.5594 52.9758 21.416 56.5195 27.0262 58.2586L28.2523 58.6523L28.7394 59.6367C29.932 62.0812 32.3508 64.0008 35.1055 64.7226C36.2812 65.0344 38.616 65.0344 39.8086 64.7226C42.4289 64.05 44.7637 62.2289 45.9898 59.9156L46.6785 58.6359L47.9047 58.2586C50.5082 57.4547 52.1879 56.1914 52.5742 54.7804C53.1789 52.582 50.9281 50.7773 46.2082 49.6781C44.9148 49.3828 44.6797 49.2679 43.8062 48.4804C42.7312 47.4961 41.2363 46.725 39.7246 46.3476C38.8008 46.1179 36.4828 46.0359 35.6933 46.2164ZM39.3383 49.0711C40.3125 49.2843 41.8746 50.2523 42.6473 51.1054C42.9664 51.4664 43.4535 52.2375 43.739 52.8281C44.159 53.714 44.243 54.1078 44.2598 55.125V56.3554L42.748 56.5687C40.7324 56.8804 34.1816 56.8804 32.166 56.5851L30.6543 56.3554L30.6039 55.4859C30.4695 53.107 32.166 50.5312 34.5848 49.432C36.0629 48.7429 37.3898 48.6609 39.3383 49.0711ZM28.1516 52.9429C28.0844 53.0906 27.95 53.7469 27.8492 54.4195C27.6812 55.5351 27.6476 55.6172 27.3117 55.5187C26.4887 55.289 25.1113 54.5179 25.0609 54.2718C25.0105 53.9765 25.8168 53.4351 27.0094 52.9758C28.0172 52.5984 28.2859 52.582 28.1516 52.9429ZM48.459 53.2218C48.9293 53.4351 49.45 53.7304 49.6348 53.8617C49.9539 54.1078 49.9539 54.1242 49.6683 54.4359C49.366 54.764 47.4008 55.6992 47.2664 55.5843C47.2328 55.5515 47.132 54.9937 47.0312 54.3539C46.9473 53.7304 46.8129 53.0742 46.7625 52.9101C46.6617 52.6476 46.7121 52.6312 47.132 52.7297C47.4008 52.7953 48.0055 53.025 48.459 53.2218ZM36.1973 59.5054C38.2297 59.5547 40.6148 59.5054 41.4883 59.4234C42.3617 59.325 43.1176 59.2758 43.1512 59.3086C43.3191 59.4726 41.5219 61.0476 40.682 61.4906C37.9777 62.8851 34.9375 62.4586 32.6699 60.3586C31.6789 59.4398 31.5109 59.1281 32.1324 59.2922C32.334 59.3578 34.1648 59.4562 36.1973 59.5054Z" fill="#88B0FF"/>
<path d="M17.704 59.6696C17.1329 59.768 16.7969 60.2602 16.629 61.2446C16.4442 62.4258 15.9739 63.2953 15.1508 64.0172C14.4454 64.6407 13.8407 64.8703 12.5809 65.0508C11.6907 65.1657 11.3044 65.4938 11.1532 66.2485C11.002 66.9868 11.7915 67.7578 12.7153 67.7578C13.5047 67.7578 14.8821 68.3813 15.4868 69.0047C16.1083 69.6446 16.629 70.8258 16.629 71.5805C16.629 72.4828 17.4184 73.2539 18.1743 73.1063C18.9469 72.9586 19.2829 72.5813 19.4004 71.7118C19.5852 70.4813 19.8204 69.8907 20.4587 69.2016C21.1977 68.3977 22.0879 67.9383 23.2973 67.7578C24.7251 67.5282 25.2122 66.8719 24.7587 65.8055C24.5403 65.3133 24.0868 65.1 22.659 64.8868C21.3321 64.6899 19.77 63.1641 19.5684 61.868C19.3669 60.5883 19.0813 59.9977 18.5606 59.8008C18.2919 59.7024 17.8887 59.6368 17.704 59.6696ZM18.7118 65.7727L19.3501 66.4125L18.6782 67.0688L18.0063 67.725L17.3344 67.0524L16.6626 66.3961L17.2672 65.7891C17.62 65.461 17.9223 65.1657 17.9727 65.1493C18.0231 65.1493 18.359 65.4282 18.7118 65.7727Z" fill="#88B0FF"/>
</g>
<defs>
<clipPath id="clip0_11_84">
<rect width="86" height="84" fill="white"/>
</clipPath>
</defs>
</svg>
