<svg width="86" height="84" viewBox="0 0 86 84" fill="none" xmlns="http://www.w3.org/2000/svg">
<path d="M38.0449 5.66016C37.6754 6.00469 37.625 6.20156 37.625 7.21875C37.625 8.23594 37.6754 8.43281 38.0449 8.77734C38.2969 9.03984 38.6496 9.1875 38.9688 9.1875C39.2879 9.1875 39.6406 9.03984 39.8926 8.77734C40.2621 8.43281 40.3125 8.23594 40.3125 7.21875C40.3125 6.20156 40.2621 6.00469 39.8926 5.66016C39.6406 5.39766 39.2879 5.25 38.9688 5.25C38.6496 5.25 38.2969 5.39766 38.0449 5.66016Z" fill="#E9AF1B"/>
<path d="M34.0137 9.59766C33.7449 9.84375 33.5938 10.1883 33.5938 10.5C33.5938 10.8117 33.7449 11.1562 34.0137 11.4023C34.3664 11.7633 34.568 11.8125 35.6094 11.8125C36.6508 11.8125 36.8523 11.7633 37.2051 11.4023C37.4738 11.1562 37.625 10.8117 37.625 10.5C37.625 10.1883 37.4738 9.84375 37.2051 9.59766C36.8523 9.23672 36.6508 9.1875 35.6094 9.1875C34.568 9.1875 34.3664 9.23672 34.0137 9.59766Z" fill="#E9AF1B"/>
<path d="M40.7324 9.59766C40.4637 9.84375 40.3125 10.1883 40.3125 10.5C40.3125 10.8117 40.4637 11.1562 40.7324 11.4023C41.0852 11.7633 41.2867 11.8125 42.3281 11.8125C43.3695 11.8125 43.5711 11.7633 43.9238 11.4023C44.1926 11.1562 44.3438 10.8117 44.3438 10.5C44.3438 10.1883 44.1926 9.84375 43.9238 9.59766C43.5711 9.23672 43.3695 9.1875 42.3281 9.1875C41.2867 9.1875 41.0852 9.23672 40.7324 9.59766Z" fill="#E9AF1B"/>
<path d="M38.0449 12.2227C37.6754 12.5672 37.625 12.7641 37.625 13.7813C37.625 14.7984 37.6754 14.9953 38.0449 15.3398C38.2969 15.6023 38.6496 15.75 38.9688 15.75C39.2879 15.75 39.6406 15.6023 39.8926 15.3398C40.2621 14.9953 40.3125 14.7984 40.3125 13.7813C40.3125 12.7641 40.2621 12.5672 39.8926 12.2227C39.6406 11.9602 39.2879 11.8125 38.9688 11.8125C38.6496 11.8125 38.2969 11.9602 38.0449 12.2227Z" fill="#E9AF1B"/>
<path d="M58.2012 12.2227C57.9324 12.4688 57.7812 12.8133 57.7812 13.125C57.7812 13.4367 57.9324 13.7812 58.2012 14.0273C58.4531 14.2898 58.8059 14.4375 59.125 14.4375C59.4441 14.4375 59.7969 14.2898 60.0488 14.0273C60.3176 13.7812 60.4688 13.4367 60.4688 13.125C60.4688 12.8133 60.3176 12.4688 60.0488 12.2227C59.7969 11.9602 59.4441 11.8125 59.125 11.8125C58.8059 11.8125 58.4531 11.9602 58.2012 12.2227Z" fill="#E9AF1B"/>
<path d="M50.1387 18.7852C49.8699 19.0313 49.7188 19.3758 49.7188 19.6875C49.7188 19.9992 49.5676 20.3438 49.2988 20.5898C49.0469 20.8523 48.6941 21 48.375 21C47.1992 21 46.6113 22.4109 47.4512 23.2148C47.7031 23.4773 48.0559 23.625 48.375 23.625C49.0637 23.625 49.7188 24.2648 49.7188 24.9375C49.7188 25.6102 50.3738 26.25 51.0625 26.25C51.7512 26.25 52.4063 25.6102 52.4063 24.9375C52.4063 24.2648 53.0613 23.625 53.75 23.625C54.4387 23.625 55.0938 22.9852 55.0938 22.3125C55.0938 21.6398 54.4387 21 53.75 21C53.4309 21 53.0781 20.8523 52.8262 20.5898C52.5574 20.3438 52.4063 19.9992 52.4063 19.6875C52.4063 19.3758 52.2551 19.0313 51.9863 18.7852C51.7344 18.5227 51.3816 18.375 51.0625 18.375C50.7434 18.375 50.3906 18.5227 50.1387 18.7852Z" fill="#E9AF1B"/>
<path d="M63.4922 19.7039C62.3332 20.1469 61.6949 21.3282 61.8797 22.6571C61.9637 23.2805 61.9133 23.5922 61.6613 24.068C61.4766 24.4125 59.2594 27.7102 56.7062 31.4016L52.0871 38.1118L51.0289 38.1282C50.3234 38.161 49.7355 38.2758 49.282 38.5219C48.543 38.8993 47.6359 39.8016 47.4512 40.343C47.3504 40.6875 47.2496 40.6875 41.6059 40.6875C35.9789 40.6875 35.8613 40.6875 35.643 40.343C35.3742 39.9164 34.1816 39.3914 33.5098 39.375C33.2242 39.375 32.7371 39.5063 32.418 39.6868L31.8301 39.9821L26.7574 38.161L21.6848 36.3399L21.2144 35.4539C20.6601 34.4204 19.9379 33.961 18.8461 33.961C17.8047 33.961 17.032 34.3711 16.5449 35.1914C16.0914 35.9297 15.9906 37.0125 16.3098 37.5868C16.5113 37.9641 16.1586 38.6039 13.3871 43.0664L11.6402 45.8555L10.6324 45.9704C8.26405 46.2164 6.81952 47.7094 6.81952 49.875C6.81952 53.7961 12.0769 55.2727 14.1766 51.9422C14.9156 50.7774 14.9828 49.3829 14.3613 48.1524L13.9078 47.25L16.3266 43.3618C18.6949 39.5555 18.7453 39.4899 19.4508 39.293C19.8371 39.1782 20.257 38.9977 20.3746 38.9157C20.509 38.8008 22.1215 39.3094 25.6824 40.5891C30.6879 42.3938 30.7719 42.4266 31.091 43.0172C31.9644 44.6743 34.1144 45.068 35.4246 43.8047L35.9117 43.3125H41.5555H47.1824L47.4344 43.7719C47.7871 44.4282 48.8957 45.3797 49.5676 45.593C50.8945 46.0032 51.9695 45.8883 53.1117 45.2157L54.0523 44.6743L59.2258 46.7579L64.3992 48.8579L64.6848 49.4977C64.9871 50.2196 65.8269 50.9743 66.4484 51.1219C67.0867 51.286 68.1953 51.0891 68.6824 50.7446C69.8414 49.8914 70.1269 48.7758 69.5391 47.4305L69.1527 46.5774L71.6219 38.3414C72.9656 33.8133 74.1582 29.8266 74.2422 29.4985C74.3766 29.0555 74.5949 28.793 75.0484 28.5469C76.0562 27.9891 76.3418 27.4805 76.3418 26.25C76.3418 24.9868 76.0226 24.4618 74.9812 23.9532C74.175 23.5594 73.5535 23.543 72.8312 23.8711C72.2937 24.1172 72.2433 24.1008 69.791 23.0836C67.5738 22.1649 67.2715 21.9844 67.1371 21.5579C66.6164 19.9829 64.9535 19.1297 63.4922 19.7039ZM68.5984 25.4625C71.034 26.4961 71.034 26.4961 71.4539 27.3L71.857 28.0875L71.5211 29.3508C71.2355 30.4336 67.1203 44.1657 66.6836 45.5274C66.5828 45.8391 66.3308 46.1016 66.0117 46.2329C65.4574 46.4789 65.3902 46.4625 58.0836 43.4602L55.1273 42.2625L55.0266 41.5079C54.9594 41.0977 54.7746 40.5235 54.6066 40.2118L54.3043 39.6539L57.9156 34.3055C63.7609 25.6758 64.2984 24.9375 64.8191 24.9375C65.0543 24.9211 65.4406 24.8227 65.6758 24.6914C65.9109 24.5602 66.1125 24.4618 66.1293 24.4454C66.1293 24.4454 67.2547 24.9047 68.5984 25.4625ZM51.9863 41.0977C52.8262 41.9016 52.2383 43.3125 51.0625 43.3125C50.3738 43.3125 49.7187 42.6727 49.7187 42C49.7187 41.6883 49.8699 41.3438 50.1387 41.0977C50.3906 40.8352 50.7434 40.6875 51.0625 40.6875C51.3816 40.6875 51.7344 40.8352 51.9863 41.0977ZM11.6738 48.9727C11.9426 49.2188 12.0937 49.5633 12.0937 49.875C12.0937 50.1868 11.9426 50.5313 11.6738 50.7774C10.8508 51.5977 9.40624 51.0235 9.40624 49.875C9.40624 49.2024 10.0613 48.5625 10.75 48.5625C11.0691 48.5625 11.4219 48.7102 11.6738 48.9727Z" fill="#E9AF1B"/>
<path d="M62.2324 34.5352C61.9637 34.7813 61.8125 35.1258 61.8125 35.4375C61.8125 35.7492 61.9637 36.0938 62.2324 36.3398C62.4844 36.6023 62.8371 36.75 63.1562 36.75C63.4754 36.75 63.8281 36.6023 64.0801 36.3398C64.3488 36.0938 64.5 35.7492 64.5 35.4375C64.5 35.1258 64.3488 34.7813 64.0801 34.5352C63.8281 34.2727 63.4754 34.125 63.1562 34.125C62.8371 34.125 62.4844 34.2727 62.2324 34.5352Z" fill="#E9AF1B"/>
<path d="M27.2949 20.0977C26.4551 20.9016 27.043 22.3125 28.2188 22.3125C28.9074 22.3125 29.5625 21.6727 29.5625 21C29.5625 20.3273 28.9074 19.6875 28.2188 19.6875C27.8996 19.6875 27.5469 19.8352 27.2949 20.0977Z" fill="#E9AF1B"/>
<path d="M12.5137 21.4102C12.2449 21.6563 12.0938 22.0008 12.0938 22.3125C12.0938 22.9852 11.4387 23.625 10.75 23.625C10.0613 23.625 9.40625 24.2648 9.40625 24.9375C9.40625 25.6102 10.0613 26.25 10.75 26.25C11.4387 26.25 12.0938 26.8898 12.0938 27.5625C12.0938 28.2352 12.7488 28.875 13.4375 28.875C14.1262 28.875 14.7812 28.2352 14.7812 27.5625C14.7812 26.8898 15.4363 26.25 16.125 26.25C16.8137 26.25 17.4688 25.6102 17.4688 24.9375C17.4688 24.2648 16.8137 23.625 16.125 23.625C15.4363 23.625 14.7812 22.9852 14.7812 22.3125C14.7812 21.6398 14.1262 21 13.4375 21C13.1184 21 12.7656 21.1477 12.5137 21.4102Z" fill="#E9AF1B"/>
<path d="M9.82617 33.2227C8.98633 34.0266 9.57422 35.4375 10.75 35.4375C11.4387 35.4375 12.0938 34.7977 12.0938 34.125C12.0938 33.4523 11.4387 32.8125 10.75 32.8125C10.4309 32.8125 10.0781 32.9602 9.82617 33.2227Z" fill="#E9AF1B"/>
<path d="M39.3887 33.2227C38.5488 34.0266 39.1367 35.4375 40.3125 35.4375C41.0012 35.4375 41.6563 34.7977 41.6563 34.125C41.6563 33.4523 41.0012 32.8125 40.3125 32.8125C39.9934 32.8125 39.6406 32.9602 39.3887 33.2227Z" fill="#E9AF1B"/>
<path d="M77.0137 41.0977C76.1738 41.9016 76.7617 43.3125 77.9375 43.3125C78.6262 43.3125 79.2813 42.6727 79.2813 42C79.2813 41.6883 79.1301 41.3438 78.8613 41.0977C78.6094 40.8352 78.2566 40.6875 77.9375 40.6875C77.6184 40.6875 77.2656 40.8352 77.0137 41.0977Z" fill="#E9AF1B"/>
<path d="M21.9199 50.2852C21.5504 50.6297 21.5 50.8266 21.5 51.8438C21.5 52.8609 21.5504 53.0578 21.9199 53.4023C22.1719 53.6648 22.5246 53.8125 22.8438 53.8125C23.1629 53.8125 23.5156 53.6648 23.7676 53.4023C24.1371 53.0578 24.1875 52.8609 24.1875 51.8438C24.1875 50.8266 24.1371 50.6297 23.7676 50.2852C23.5156 50.0227 23.1629 49.875 22.8438 49.875C22.5246 49.875 22.1719 50.0227 21.9199 50.2852Z" fill="#E9AF1B"/>
<path d="M47.4512 50.2852C47.1824 50.5313 47.0312 50.8758 47.0312 51.1875C47.0312 51.8602 46.3762 52.5 45.6875 52.5C44.9988 52.5 44.3438 53.1398 44.3438 53.8125C44.3438 54.4852 44.9988 55.125 45.6875 55.125C46.3762 55.125 47.0312 55.7648 47.0312 56.4375C47.0312 57.1102 47.6863 57.75 48.375 57.75C49.0637 57.75 49.7188 57.1102 49.7188 56.4375C49.7188 55.7648 50.3738 55.125 51.0625 55.125C51.7512 55.125 52.4062 54.4852 52.4062 53.8125C52.4062 53.1398 51.7512 52.5 51.0625 52.5C50.3738 52.5 49.7188 51.8602 49.7188 51.1875C49.7188 50.5148 49.0637 49.875 48.375 49.875C48.0559 49.875 47.7031 50.0227 47.4512 50.2852Z" fill="#E9AF1B"/>
<path d="M17.8887 54.2227C17.6199 54.4688 17.4688 54.8133 17.4688 55.125C17.4688 55.4367 17.6199 55.7812 17.8887 56.0273C18.2414 56.3883 18.443 56.4375 19.4844 56.4375C20.5258 56.4375 20.7273 56.3883 21.0801 56.0273C21.6344 55.5023 21.6344 54.7477 21.0801 54.2227C20.7273 53.8617 20.5258 53.8125 19.4844 53.8125C18.443 53.8125 18.2414 53.8617 17.8887 54.2227Z" fill="#E9AF1B"/>
<path d="M24.6074 54.2227C24.3387 54.4688 24.1875 54.8133 24.1875 55.125C24.1875 55.4367 24.3387 55.7812 24.6074 56.0273C24.9602 56.3883 25.1617 56.4375 26.2031 56.4375C27.2445 56.4375 27.4461 56.3883 27.7988 56.0273C28.0676 55.7812 28.2188 55.4367 28.2188 55.125C28.2188 54.8133 28.0676 54.4688 27.7988 54.2227C27.4461 53.8617 27.2445 53.8125 26.2031 53.8125C25.1617 53.8125 24.9602 53.8617 24.6074 54.2227Z" fill="#E9AF1B"/>
<path d="M72.9824 55.5352C72.1426 56.3391 72.7305 57.75 73.9063 57.75C74.5949 57.75 75.25 57.1102 75.25 56.4375C75.25 55.7648 74.5949 55.125 73.9063 55.125C73.5871 55.125 73.2344 55.2727 72.9824 55.5352Z" fill="#E9AF1B"/>
<path d="M21.9199 56.8477C21.5504 57.1922 21.5 57.3891 21.5 58.4063C21.5 59.4234 21.5504 59.6203 21.9199 59.9648C22.1719 60.2273 22.5246 60.375 22.8438 60.375C23.1629 60.375 23.5156 60.2273 23.7676 59.9648C24.1371 59.6203 24.1875 59.4234 24.1875 58.4063C24.1875 57.3891 24.1371 57.1922 23.7676 56.8477C23.5156 56.5852 23.1629 56.4375 22.8438 56.4375C22.5246 56.4375 22.1719 56.5852 21.9199 56.8477Z" fill="#E9AF1B"/>
<path d="M34.0137 60.7852C33.1738 61.5891 33.7617 63 34.9375 63C35.2566 63 35.6094 62.8523 35.8613 62.5898C36.1301 62.3438 36.2813 61.9992 36.2813 61.6875C36.2813 61.3758 36.1301 61.0313 35.8613 60.7852C35.6094 60.5227 35.2566 60.375 34.9375 60.375C34.6184 60.375 34.2656 60.5227 34.0137 60.7852Z" fill="#E9AF1B"/>
<path d="M64.9199 60.7852C64.5504 61.1297 64.5 61.3266 64.5 62.3438C64.5 63.3609 64.5504 63.5578 64.9199 63.9023C65.1719 64.1648 65.5246 64.3125 65.8438 64.3125C66.1629 64.3125 66.5156 64.1648 66.7676 63.9023C67.1371 63.5578 67.1875 63.3609 67.1875 62.3438C67.1875 61.3266 67.1371 61.1297 66.7676 60.7852C66.5156 60.5227 66.1629 60.375 65.8438 60.375C65.5246 60.375 65.1719 60.5227 64.9199 60.7852Z" fill="#E9AF1B"/>
<path d="M52.8262 62.0977C51.9863 62.9016 52.5742 64.3125 53.75 64.3125C54.4387 64.3125 55.0938 63.6727 55.0938 63C55.0938 62.3273 54.4387 61.6875 53.75 61.6875C53.4309 61.6875 53.0781 61.8352 52.8262 62.0977Z" fill="#E9AF1B"/>
<path d="M60.8887 64.7227C60.6199 64.9688 60.4688 65.3133 60.4688 65.625C60.4688 65.9367 60.6199 66.2812 60.8887 66.5273C61.2414 66.8883 61.443 66.9375 62.4844 66.9375C63.5258 66.9375 63.7273 66.8883 64.0801 66.5273C64.3488 66.2812 64.5 65.9367 64.5 65.625C64.5 65.3133 64.3488 64.9688 64.0801 64.7227C63.7273 64.3617 63.5258 64.3125 62.4844 64.3125C61.443 64.3125 61.2414 64.3617 60.8887 64.7227Z" fill="#E9AF1B"/>
<path d="M67.6074 64.7227C67.3387 64.9688 67.1875 65.3133 67.1875 65.625C67.1875 65.9367 67.3387 66.2812 67.6074 66.5273C67.9602 66.8883 68.1617 66.9375 69.2031 66.9375C70.2445 66.9375 70.4461 66.8883 70.7988 66.5273C71.0676 66.2812 71.2188 65.9367 71.2188 65.625C71.2188 65.3133 71.0676 64.9688 70.7988 64.7227C70.4461 64.3617 70.2445 64.3125 69.2031 64.3125C68.1617 64.3125 67.9602 64.3617 67.6074 64.7227Z" fill="#E9AF1B"/>
<path d="M64.9199 67.3477C64.5504 67.6922 64.5 67.8891 64.5 68.9063C64.5 69.9234 64.5504 70.1203 64.9199 70.4648C65.1719 70.7273 65.5246 70.875 65.8438 70.875C66.1629 70.875 66.5156 70.7273 66.7676 70.4648C67.1371 70.1203 67.1875 69.9234 67.1875 68.9063C67.1875 67.8891 67.1371 67.6922 66.7676 67.3477C66.5156 67.0852 66.1629 66.9375 65.8438 66.9375C65.5246 66.9375 65.1719 67.0852 64.9199 67.3477Z" fill="#E9AF1B"/>
<path d="M20.5762 68.6602C20.3074 68.9063 20.1562 69.2508 20.1562 69.5625C20.1562 69.8742 20.3074 70.2188 20.5762 70.4648C20.8281 70.7273 21.1809 70.875 21.5 70.875C21.8191 70.875 22.1719 70.7273 22.4238 70.4648C22.6926 70.2188 22.8438 69.8742 22.8438 69.5625C22.8438 69.2508 22.6926 68.9063 22.4238 68.6602C22.1719 68.3977 21.8191 68.25 21.5 68.25C21.1809 68.25 20.8281 68.3977 20.5762 68.6602Z" fill="#E9AF1B"/>
<path d="M42.0762 75.2227C41.2363 76.0266 41.8242 77.4375 43 77.4375C43.6887 77.4375 44.3438 76.7977 44.3438 76.125C44.3438 75.4523 43.6887 74.8125 43 74.8125C42.6809 74.8125 42.3281 74.9602 42.0762 75.2227Z" fill="#E9AF1B"/>
</svg>
