<svg width="111" height="68" viewBox="0 0 111 68" fill="none" xmlns="http://www.w3.org/2000/svg">
<path d="M20.272 53.432L25.744 52.616L30.976 51.08L32.224 49.064L31.696 47L30.448 45.464C30.096 45.24 29.728 45.032 29.344 44.84C28.992 44.616 28.624 44.456 28.24 44.36C27.888 44.232 27.52 44.184 27.136 44.216C26.784 44.216 26.432 44.328 26.08 44.552L24.88 45.416L20.896 43.544L19.456 39.848L20.704 33.656L22.912 30.728C23.008 30.952 23.2 31.032 23.488 30.968C23.776 30.904 24.064 30.776 24.352 30.584C24.64 30.392 24.88 30.168 25.072 29.912C25.264 29.624 25.312 29.368 25.216 29.144C25.76 28.984 26.384 28.824 27.088 28.664C27.792 28.472 28.4 28.2 28.912 27.848L35.104 26.552L36.112 26.456L36.976 27.464L36.208 29.528L34.432 30.008L32.128 30.248L28.624 32.024L26.992 34.136C26.48 34.616 26.224 35.144 26.224 35.72C26.256 36.264 26.4 36.856 26.656 37.496C27.008 38.232 27.264 38.712 27.424 38.936C27.616 39.128 27.856 39.304 28.144 39.464L30.976 40.424C31.296 40.68 31.584 40.888 31.84 41.048C32.128 41.176 32.448 41.256 32.8 41.288C33.152 41.32 33.648 41.352 34.288 41.384C34.96 41.416 35.808 41.464 36.832 41.528C37.12 42.072 37.456 42.552 37.84 42.968C38.224 43.352 38.592 43.864 38.944 44.504L39.904 46.664L38.464 51.464L37.312 52.712L34.96 56.12H33.76C33.344 56.12 32.832 56.136 32.224 56.168C31.648 56.168 30.96 56.168 30.16 56.168C29.36 56.168 28.656 56.248 28.048 56.408C27.44 56.568 26.896 56.744 26.416 56.936C25.936 57.096 25.52 57.24 25.168 57.368C24.816 57.496 24.496 57.544 24.208 57.512L22.48 56.984L19.6 57.464L18.592 55.4L18.88 54.2L20.272 53.432ZM67.9356 37.4L67.0236 44.12L67.1676 46.856L66.9276 49.736L66.2076 52.52L63.4236 56.648C62.2076 57.576 60.8956 58.2 59.4876 58.52C58.0796 58.84 56.5596 58.92 54.9276 58.76L52.6716 57.752H51.3756C50.8636 57.752 49.9676 57.256 48.6876 56.264C48.1436 55.848 47.6796 55.48 47.2956 55.16C47.1996 55.096 47.1036 55.032 47.0076 54.968C46.9436 54.904 46.8796 54.84 46.8156 54.776C46.8156 54.52 46.7836 54.2 46.7196 53.816C46.6556 53.432 46.5596 52.952 46.4316 52.376C46.3356 51.8 46.2396 51.352 46.1436 51.032C46.0796 50.68 46.0316 50.424 45.9996 50.264C45.9996 50.168 46.0156 50.056 46.0476 49.928C46.0796 49.768 46.0796 49.624 46.0476 49.496C46.0476 49.336 45.9996 49.208 45.9036 49.112C45.8076 49.016 45.6316 48.968 45.3756 48.968L45.5196 46.28C45.6476 45.928 45.7116 45.688 45.7116 45.56C45.7116 45.432 45.6956 45.32 45.6636 45.224C45.6316 45.128 45.6156 45 45.6156 44.84C45.6156 44.68 45.6956 44.408 45.8556 44.024L46.0956 42.248C46.3836 42.344 46.6076 42.264 46.7676 42.008C46.9596 41.752 47.0716 41.448 47.1036 41.096C47.1676 40.712 47.1516 40.376 47.0556 40.088C46.9596 39.768 46.7676 39.608 46.4796 39.608C46.3516 39.352 46.2716 39.08 46.2396 38.792C46.2076 38.472 46.2236 38.312 46.2876 38.312C46.2876 38.12 46.2716 37.896 46.2396 37.64C46.2076 37.384 46.1916 36.904 46.1916 36.2L47.5836 35.048C47.9676 35.08 48.4476 35.112 49.0236 35.144C49.5996 35.144 50.1916 35.144 50.7996 35.144C51.4396 35.144 52.0476 35.16 52.6236 35.192C53.1996 35.192 53.6636 35.224 54.0156 35.288L54.3996 35.912C54.2076 36.552 54.1116 37.016 54.1116 37.304C54.0796 37.496 54.0796 37.656 54.1116 37.784L54.0156 39.992C53.9196 40.184 53.8236 40.472 53.7276 40.856C53.6636 41.208 53.5996 41.608 53.5356 42.056C53.5036 42.472 53.4716 42.904 53.4396 43.352C53.4076 43.8 53.3916 44.184 53.3916 44.504C53.2316 45.048 53.0716 45.624 52.9116 46.232C52.7516 46.808 52.7356 47.352 52.8636 47.864C52.9276 48.024 52.9596 48.232 52.9596 48.488C52.9916 48.712 53.1036 49.144 53.2956 49.784C53.2316 49.976 53.1836 50.216 53.1516 50.504C53.1196 50.792 53.1036 51.096 53.1036 51.416C53.1356 51.704 53.1996 52.008 53.2956 52.328C53.4236 52.616 53.5996 52.856 53.8236 53.048L55.6476 54.488L58.5276 54.728C58.8476 55.144 59.1356 55.352 59.3916 55.352C59.6476 55.32 59.8556 54.984 60.0156 54.344L61.6956 53.336L63.0396 49.784L63.0876 47.576V45.224C63.7276 44.776 64.0796 44.296 64.1436 43.784C64.2076 43.272 63.8716 42.664 63.1356 41.96L62.9916 36.44L63.9516 35.576L66.8796 35.816L67.9356 37.4ZM82.7635 29.096C82.7635 29.256 82.7475 29.368 82.7155 29.432C82.7155 29.496 82.6995 29.56 82.6675 29.624C82.7315 29.784 82.7635 29.928 82.7635 30.056C82.7635 30.152 82.7475 30.248 82.7155 30.344C82.7155 30.44 82.7155 30.568 82.7155 30.728C82.7155 30.856 82.7475 31.032 82.8115 31.256C82.9715 31.704 83.1315 32.008 83.2915 32.168C83.4515 32.296 83.6435 32.44 83.8675 32.6C83.5475 32.888 83.3875 33.144 83.3875 33.368C83.3875 33.56 83.4515 33.72 83.5795 33.848C83.7075 33.976 83.8995 34.088 84.1555 34.184C84.2195 34.248 84.3635 34.376 84.5875 34.568C84.8115 34.728 85.0355 34.776 85.2595 34.712L88.4275 39.896L93.8995 46.904C94.2835 46.936 94.4915 46.728 94.5235 46.28C94.5875 45.8 94.5715 45.288 94.4755 44.744C94.4115 44.168 94.3155 43.656 94.1875 43.208C94.0595 42.76 93.9955 42.568 93.9955 42.632C93.8995 41.704 93.8035 40.984 93.7075 40.472C93.6115 39.96 93.6435 39.4 93.8035 38.792C93.9635 38.632 93.9955 38.312 93.8995 37.832C93.8035 37.32 93.6755 36.808 93.5155 36.296C93.4515 36.008 93.4195 35.688 93.4195 35.336C93.4195 34.984 93.4355 34.632 93.4675 34.28C93.4995 33.928 93.5155 33.608 93.5155 33.32C93.5475 33.032 93.5475 32.808 93.5155 32.648C93.5155 32.328 93.4835 32.024 93.4195 31.736C93.3555 31.448 93.3715 31.176 93.4675 30.92C93.4995 30.792 93.5155 30.712 93.5155 30.68C93.5475 30.616 93.5635 30.552 93.5635 30.488C93.5635 30.424 93.5475 30.328 93.5155 30.2C93.5155 30.072 93.5155 29.88 93.5155 29.624L94.1875 28.952C94.2835 28.824 94.4435 28.728 94.6675 28.664C94.8915 28.6 95.1155 28.568 95.3395 28.568C95.5955 28.536 95.8195 28.52 96.0115 28.52C96.2355 28.52 96.3955 28.536 96.4915 28.568C96.7155 28.632 96.9715 28.68 97.2595 28.712C97.5795 28.712 97.8515 28.696 98.0755 28.664L98.9395 28.904L99.4675 31.256C99.0195 31.736 98.7635 32.2 98.6995 32.648C98.6355 33.096 98.6195 33.544 98.6515 33.992C98.6515 34.76 98.6675 35.336 98.6995 35.72C98.7635 36.072 98.8275 36.328 98.8915 36.488C98.9875 36.648 99.0675 36.744 99.1315 36.776C99.2275 36.808 99.3075 36.856 99.3715 36.92C99.3075 37.176 99.1955 37.432 99.0355 37.688C98.9075 37.912 98.7475 38.152 98.5555 38.408C98.4595 38.536 98.4115 38.696 98.4115 38.888C98.4435 39.048 98.5075 39.208 98.6035 39.368C98.6995 39.528 98.8115 39.672 98.9395 39.8C99.0675 39.896 99.1955 39.928 99.3235 39.896C99.3875 39.992 99.3875 40.264 99.3235 40.712C99.2595 41.128 99.3235 42.008 99.5155 43.352C99.5795 44.024 99.5635 44.6 99.4675 45.08C99.4035 45.528 99.3235 45.928 99.2275 46.28C99.1315 46.6 99.0355 46.904 98.9395 47.192C98.8755 47.448 98.8595 47.72 98.8915 48.008C98.9235 48.008 98.9555 48.152 98.9875 48.44C99.0195 48.728 99.0515 49.048 99.0835 49.4C99.1155 49.72 99.1475 50.024 99.1795 50.312C99.2435 50.568 99.3075 50.68 99.3715 50.648C99.3075 51.8 99.3235 52.808 99.4195 53.672C99.5475 54.536 99.5635 55.016 99.4675 55.112L99.6595 55.736L97.6915 56.456C97.4995 56.456 97.3075 56.456 97.1155 56.456C96.9235 56.456 96.7475 56.472 96.5875 56.504C96.2675 56.536 95.9475 56.568 95.6275 56.6C95.3075 56.632 95.0515 56.664 94.8595 56.696L93.8995 56.168C93.9315 55.848 93.9955 55.624 94.0915 55.496C94.3155 55.368 94.3955 54.888 94.3315 54.056C94.2995 53.768 94.2195 53.592 94.0915 53.528C93.9955 53.464 93.8995 53.352 93.8035 53.192L87.0355 44.168C86.9395 44.072 86.8595 43.976 86.7955 43.88C86.6675 43.72 86.5395 43.432 86.4115 43.016C86.2835 42.6 86.0915 42.168 85.8355 41.72C85.6115 41.24 85.2275 40.824 84.6835 40.472L84.3955 37.784C84.2995 37.304 83.7875 37.192 82.8595 37.448C82.6995 37.576 82.6035 37.704 82.5715 37.832C82.5395 37.96 82.5235 38.088 82.5235 38.216C82.5555 38.344 82.5875 38.472 82.6195 38.6C82.6515 38.728 82.6515 38.84 82.6195 38.936C82.5875 39.064 82.5555 39.176 82.5235 39.272C82.4915 39.336 82.4595 39.448 82.4275 39.608C82.4275 39.768 82.4115 40.008 82.3795 40.328C82.3475 40.616 82.3155 41.048 82.2835 41.624C82.2515 42.2 82.2035 42.792 82.1395 43.4C82.1075 43.976 82.0755 44.536 82.0435 45.08C82.0435 45.592 82.0755 46.04 82.1395 46.424C82.2355 46.808 82.3795 47.064 82.5715 47.192C82.5715 47.576 82.4275 49.16 82.1395 51.944C82.0435 52.968 81.9635 53.832 81.8995 54.536C81.8675 55.208 81.8355 55.752 81.8035 56.168L81.1795 56.936C80.7635 57 80.2195 57.064 79.5475 57.128C78.9075 57.192 78.2515 57.256 77.5795 57.32C76.9395 57.384 76.3315 57.432 75.7555 57.464C75.2115 57.496 74.8275 57.512 74.6035 57.512C74.4115 57.512 74.2035 57.448 73.9795 57.32C73.7555 57.192 73.5635 56.952 73.4035 56.6C73.5955 56.344 73.7075 56.232 73.7395 56.264C73.7715 56.264 73.7235 56.264 73.5955 56.264V50.984L74.2195 49.928L73.4995 48.152L73.5955 46.808C73.5955 46.648 73.6275 46.392 73.6915 46.04C73.7555 45.656 73.8195 45.24 73.8835 44.792C73.9475 44.344 73.9955 43.896 74.0275 43.448C74.0915 42.968 74.1075 42.536 74.0755 42.152C74.0115 41.416 73.9635 40.856 73.9315 40.472C73.8995 40.056 73.8835 39.816 73.8835 39.752C73.8835 39.624 73.9635 39.4 74.1235 39.08C74.3155 38.728 74.4755 38.44 74.6035 38.216C74.6995 38.056 74.7315 37.896 74.6995 37.736C74.6675 37.544 74.6675 37.384 74.6995 37.256C74.7635 37.128 74.8435 37.032 74.9395 36.968C75.0355 36.872 75.0515 36.904 74.9875 37.064C75.1795 37.16 75.2115 36.92 75.0835 36.344C74.9875 35.768 74.9235 35.064 74.8915 34.232L74.8435 31.688C74.8115 31.528 74.7795 31.384 74.7475 31.256C74.7475 31.128 74.6675 30.936 74.5075 30.68C74.9555 30.456 75.2115 30.248 75.2755 30.056C75.3395 29.864 75.3715 29.576 75.3715 29.192C75.6275 29.096 76.0275 29.032 76.5715 29C77.1475 28.936 77.7555 28.888 78.3955 28.856C79.0355 28.792 79.6595 28.728 80.2675 28.664C80.8755 28.568 81.3715 28.456 81.7555 28.328L82.7635 29.096Z" fill="#ECFF7A"/>
<path d="M1 4.5L17 23" stroke="#ECFF7A"/>
<path d="M56 1L42 22" stroke="#ECFF7A"/>
<path d="M110.5 2L96 22" stroke="#ECFF7A"/>
</svg>
